<svg width="47" height="41" viewBox="0 0 47 41" fill="none" xmlns="http://www.w3.org/2000/svg"><path d="M27.836 17.073h-2.317v-2.317a2.317 2.317 0 10-4.635 0v2.317h-2.317a2.317 2.317 0 100 4.635h2.317v2.317a2.317 2.317 0 004.634 0v-2.317h2.318a2.317 2.317 0 100-4.635zM42.11 4.24A14.576 14.576 0 0023.2 2.87 14.53 14.53 0 004.291 24.84l13.905 14.02a6.952 6.952 0 009.825 0l13.904-14.02a14.529 14.529 0 00.186-20.601zm-3.268 17.287L24.94 35.43a2.316 2.316 0 01-3.29 0L7.745 21.526a9.941 9.941 0 010-13.904 9.895 9.895 0 0113.904 0 2.317 2.317 0 003.29 0 9.895 9.895 0 0113.904 0 9.941 9.941 0 010 13.95v-.046z" fill="#0B8ACD"/></svg>