<svg width="37" height="42" viewBox="0 0 37 42" fill="none" xmlns="http://www.w3.org/2000/svg"><path d="M18.182 41.712l-9.358-4.906a16.523 16.523 0 01-6.453-6.026A16.153 16.153 0 010 22.346V2.979C0 2.19.32 1.432.888.874A3.06 3.06 0 013.03 0h30.304a3.06 3.06 0 012.142.874 2.95 2.95 0 01.888 2.105v19.367a16.152 16.152 0 01-2.37 8.434 16.523 16.523 0 01-6.454 6.026l-9.358 4.906zM3.03 2.98v19.367a13.216 13.216 0 001.941 6.9 13.52 13.52 0 005.28 4.931l7.931 4.158 7.93-4.156a13.52 13.52 0 005.282-4.931 13.215 13.215 0 001.94-6.902V2.979H3.03z" fill="#0B8ACD"/><path fill-rule="evenodd" clip-rule="evenodd" d="M20.5 15.865h2.317a2.317 2.317 0 110 4.635H20.5v2.317a2.317 2.317 0 11-4.635 0V20.5h-2.317a2.317 2.317 0 010-4.635h2.317v-2.317a2.317 2.317 0 014.635 0v2.317z" fill="#0B8ACD"/></svg>