<svg width="40" height="50" viewBox="0 0 40 50" fill="none" xmlns="http://www.w3.org/2000/svg"><path fill-rule="evenodd" clip-rule="evenodd" d="M2.165 7.092A7.391 7.391 0 017.39 4.928h4.928a2.464 2.464 0 110 4.927H7.39a2.464 2.464 0 00-2.463 2.464v29.565a2.464 2.464 0 002.463 2.464h24.64a2.464 2.464 0 002.464-2.464V12.319a2.464 2.464 0 00-2.464-2.464H27.1a2.464 2.464 0 110-4.927h4.928a7.392 7.392 0 017.391 7.39v29.566a7.392 7.392 0 01-7.391 7.391H7.39A7.391 7.391 0 010 41.884V12.319c0-1.96.779-3.84 2.165-5.227z" fill="#0B8ACD"/><path fill-rule="evenodd" clip-rule="evenodd" d="M17.246 4.928a2.464 2.464 0 000 4.927h4.928a2.464 2.464 0 100-4.927h-4.928zM9.856 7.39A7.391 7.391 0 0117.245 0h4.928a7.391 7.391 0 110 14.783h-4.928a7.391 7.391 0 01-7.39-7.392zm2.463 22.175a2.464 2.464 0 012.464-2.464h9.855a2.464 2.464 0 010 4.928h-9.855a2.464 2.464 0 01-2.464-2.464z" fill="#0B8ACD"/><path fill-rule="evenodd" clip-rule="evenodd" d="M19.71 22.174a2.464 2.464 0 012.464 2.464v9.855a2.464 2.464 0 01-4.928 0v-9.855a2.464 2.464 0 012.464-2.464z" fill="#0B8ACD"/></svg>