<svg width="32" height="31" viewBox="0 0 32 31" fill="none" xmlns="http://www.w3.org/2000/svg"><g clip-path="url(#clip0_342_715)"><path d="M31.428 15.357C31.428 6.876 24.552 0 16.071 0 7.589 0 .714 6.876.714 15.357c0 7.665 5.616 14.019 12.957 15.17v-10.73H9.773v-4.44h3.9v-3.383c0-3.85 2.292-5.975 5.8-5.975 1.68 0 3.438.3 3.438.3v3.78h-1.937c-1.907 0-2.502 1.183-2.502 2.399v2.88h4.259l-.681 4.438h-3.58v10.732c7.341-1.152 12.957-7.506 12.957-15.17z" fill="#597BC5"/></g><defs><clipPath id="clip0_342_715"><path fill="#fff" transform="translate(.714)" d="M0 0h30.714v30.714H0z"/></clipPath></defs></svg>