<svg width="42" height="30" viewBox="0 0 42 30" fill="none" xmlns="http://www.w3.org/2000/svg"><path fill-rule="evenodd" clip-rule="evenodd" d="M9.333 3.334A1.833 1.833 0 006.741.74c-7.876 7.876-7.876 20.644 0 28.52a1.833 1.833 0 002.592-2.593 16.499 16.499 0 010-23.334zM35.26.74a1.833 1.833 0 10-2.592 2.593 16.5 16.5 0 010 23.334 1.835 1.835 0 00-.023 2.615 1.832 1.832 0 002.615-.022c7.876-7.876 7.876-20.644 0-28.52zM14.518 8.518a1.834 1.834 0 00-2.592-2.592 12.832 12.832 0 000 18.15 1.834 1.834 0 102.592-2.592 9.167 9.167 0 010-12.966zm15.558-2.592a1.835 1.835 0 00-3.016.58 1.835 1.835 0 00.423 2.012 9.166 9.166 0 010 12.966 1.833 1.833 0 002.593 2.592 12.833 12.833 0 000-18.15zM15.5 15.001a5.5 5.5 0 1111 0 5.5 5.5 0 01-11 0z" fill="#F2AB21"/></svg>