<svg width="45" height="33" viewBox="0 0 45 33" fill="none" xmlns="http://www.w3.org/2000/svg"><path fill-rule="evenodd" clip-rule="evenodd" d="M44.161.675a2.31 2.31 0 01.674 1.63 2.31 2.31 0 01-1.276 2.122c.118.387.179.79.182 1.195v21.363a4.224 4.224 0 01-.182 1.194 2.301 2.301 0 011.322 2.576 2.306 2.306 0 01-2.233 1.837h-19.22l-1.822-.014H2.12a2.296 2.296 0 01-1.509-.733 2.308 2.308 0 011.509-3.863 4 4 0 01-.127-1.011V5.608a4.002 4.002 0 01.127-1.012 2.297 2.297 0 01-1.51-.733A2.308 2.308 0 012.12 0h40.415c.61 0 1.195.243 1.626.675zm-.693 29.983a1 1 0 00-.547-1.31.993.993 0 00-.386-.073H2.12a.992.992 0 00-.92.617 1 1 0 00.92 1.38h40.415a.993.993 0 00.933-.613zM3.872 5.608V26.97c.001.345.078.685.224.997h37.346c.158-.308.24-.65.238-.997V5.608c.001-.347-.08-.69-.238-.998H4.096a2.366 2.366 0 00-.224.998zM2.12 3.303h40.415a.994.994 0 00.996-.998 1 1 0 00-.995-.998H2.12a.994.994 0 00-.996.998 1 1 0 00.996.998z" fill="#D04727"/><path d="M3.872 26.97V5.609c.001-.345.078-.686.224-.998h37.346c.158.309.24.65.238.998V26.97c.001.346-.08.689-.238.997H4.096a2.366 2.366 0 01-.224-.997z" fill="#D04727"/><path d="M36.423 8.433a.995.995 0 00-1.402.197l-5.873 7.828-7.851-3.92a.965.965 0 00-1.248.322l-5.41 8.152h-5.86a.98.98 0 00-.865.977.985.985 0 00.864.976h6.379a.966.966 0 00.799-.435l5.243-7.87 7.794 3.906a.951.951 0 001.206-.28l6.378-8.433a.986.986 0 00-.154-1.42z" fill="#fff"/></svg>