<svg width="40" height="28" viewBox="0 0 40 28" fill="none" xmlns="http://www.w3.org/2000/svg"><path d="M39.116.962a3.128 3.128 0 00-2.13-.87H3.014a3.103 3.103 0 00-2.13.87A2.912 2.912 0 000 3.058V25.02a2.94 2.94 0 00.882 2.097 3.04 3.04 0 002.132.869h33.97c.8 0 1.567-.313 2.132-.87a2.94 2.94 0 00.883-2.096V3.058c0-.39-.078-.775-.23-1.135a2.953 2.953 0 00-.654-.961z" fill="#2A98D3"/><path d="M28.553 13.4l-7.996-4.71-5.478-3.229a.925.925 0 00-.86 0 .824.824 0 00-.324.29.748.748 0 00-.12.402l-.091 15.782c.003.14.043.277.119.398a.858.858 0 00.311.294 1 1 0 00.417.097c.162.001.32-.04.457-.122l13.552-7.806a.77.77 0 00.302-.28.7.7 0 00.102-.387.742.742 0 00-.087-.415.813.813 0 00-.304-.314zm-13.16 7.054L15.47 7.56l11.022 6.495-11.1 6.398z" fill="#fff"/></svg>