<svg width="35" height="35" viewBox="0 0 35 35" fill="none" xmlns="http://www.w3.org/2000/svg"><path d="M4.738 22.802c.057.117.133.225.224.319a1.866 1.866 0 001.867.563 1.977 1.977 0 001.4-1.39 3.17 3.17 0 01.915-1.557 3.17 3.17 0 013.287-.694 3.736 3.736 0 011.58 1.217c.409.542.662 1.185.735 1.86a.95.95 0 010 .226 3.573 3.573 0 01-.916 1.928 3.543 3.543 0 01-1.848 1.056 1.863 1.863 0 00-1.475 1.276 1.885 1.885 0 00.411 1.877l4.612 4.973c.256.273.588.462.952.544h.28a1.862 1.862 0 001.251-.507l4.407-3.903a5.407 5.407 0 001.045 1.632 5.584 5.584 0 007.842.338 5.647 5.647 0 00.28-7.863 5.604 5.604 0 00-1.53-1.182l4.332-4.073a2.26 2.26 0 00.223-.244c.203-.282.331-.611.374-.957a.81.81 0 000-.3 1.88 1.88 0 00-.485-.995l-4.538-5.03a1.867 1.867 0 00-1.867-.562 1.866 1.866 0 00-1.4 1.37c-.202.7-.613 1.32-1.177 1.776a3.518 3.518 0 01-1.979.776h-.242a3.726 3.726 0 01-1.79-.877 3.755 3.755 0 01-1.086-1.675 3.3 3.3 0 01.971-3.247 3.093 3.093 0 011.606-.788 1.863 1.863 0 001.493-1.276 1.886 1.886 0 00-.392-1.877 1.029 1.029 0 00-.317-.244L19.433.601A1.864 1.864 0 0018.274 0h-.299a2.39 2.39 0 00-.616.206 1.962 1.962 0 00-.392.282l-4.761 4.354a.805.805 0 00-.169.187 1.882 1.882 0 00-.28 1.67 1.88 1.88 0 001.12 1.22 3.269 3.269 0 012.073 3.266 3.222 3.222 0 01-1.157 2.29H13.7a3.302 3.302 0 01-2.352.975 3.238 3.238 0 01-1.926-.662 3.266 3.266 0 01-1.155-1.683 1.879 1.879 0 00-1.12-1.22 1.97 1.97 0 00-1.681.15l-.187.15-4.705 4.41a2.01 2.01 0 00-.56.957.924.924 0 000 .32c.01.451.183.885.485 1.22l4.239 4.71zm1.494-9.384a5.876 5.876 0 002.67 2.585 5.837 5.837 0 006.897-1.396 5.907 5.907 0 001.468-3.422 5.657 5.657 0 00-1.457-4.166 5.474 5.474 0 00-1.456-1.145l3.734-3.397 3.734 4.035a5.352 5.352 0 00-1.96 1.164 5.634 5.634 0 00-1.609 2.582 5.658 5.658 0 00-.034 3.048 5.973 5.973 0 001.694 2.786 5.926 5.926 0 002.899 1.474 2.71 2.71 0 001.102 0 5.938 5.938 0 002.897-1.098 5.981 5.981 0 001.957-2.412l3.641 3.998-4.313 4.053c-.19.162-.337.369-.43.6a1.881 1.881 0 00-.149 1.54 1.88 1.88 0 001.102 1.163c.486.191.92.493 1.27.882a3.238 3.238 0 01-.131 4.523 3.276 3.276 0 01-4.537-.207 3.25 3.25 0 01-.729-1.313 1.88 1.88 0 00-1.025-1.196 1.86 1.86 0 00-1.57.014c-.234.081-.45.209-.635.375l-4.444 3.997-3.734-3.96a5.956 5.956 0 002.556-1.763 6 6 0 001.328-2.816 3.15 3.15 0 000-1.107 6.002 6.002 0 00-1.225-3.025 5.958 5.958 0 00-2.622-1.93 5.574 5.574 0 00-5.601 1.202 5.481 5.481 0 00-1.307 1.876L2.479 16.89l3.753-3.472z" fill="#856FFE"/><path d="M6.232 13.418a5.876 5.876 0 002.67 2.585 5.837 5.837 0 006.897-1.396 5.907 5.907 0 001.468-3.422 5.657 5.657 0 00-1.457-4.166 5.474 5.474 0 00-1.456-1.145l3.734-3.397 3.734 4.035a5.352 5.352 0 00-1.96 1.164 5.634 5.634 0 00-1.609 2.582 5.658 5.658 0 00-.034 3.048 5.973 5.973 0 001.694 2.786 5.926 5.926 0 002.899 1.474 2.71 2.71 0 001.102 0 5.938 5.938 0 002.897-1.098 5.981 5.981 0 001.957-2.412l3.641 3.998-4.313 4.053c-.19.162-.337.369-.43.6a1.881 1.881 0 00-.149 1.54 1.88 1.88 0 001.102 1.163c.486.191.92.493 1.27.882a3.238 3.238 0 01-.131 4.523 3.276 3.276 0 01-4.537-.207 3.25 3.25 0 01-.729-1.313 1.88 1.88 0 00-1.025-1.196 1.86 1.86 0 00-1.57.014c-.234.081-.45.209-.635.375l-4.444 3.997-3.734-3.96a5.956 5.956 0 002.556-1.763 6 6 0 001.328-2.816 3.15 3.15 0 000-1.107 6.002 6.002 0 00-1.225-3.025 5.958 5.958 0 00-2.622-1.93 5.574 5.574 0 00-5.601 1.202 5.481 5.481 0 00-1.307 1.876L2.479 16.89l3.753-3.472z" fill="#856FFE"/></svg>