<svg width="36" height="33" viewBox="0 0 36 33" fill="none" xmlns="http://www.w3.org/2000/svg"><g clip-path="url(#clip0_71_287)"><path d="M31.234 26.725H14.483l-8.635 5.792a.897.897 0 01-.507.166.838.838 0 01-.437-.118.92.92 0 01-.483-.814v-5.486C2.745 25.558.716 24.024.716 21.96V5.444A4.719 4.719 0 015.436.726h25.798a4.719 4.719 0 014.719 4.718V21.96a4.718 4.718 0 01-4.719 4.766zM34.16 5.491a2.924 2.924 0 00-2.926-2.996H5.482a2.926 2.926 0 00-2.925 2.926v16.515c0 1.073 1.616 2.36 3.055 2.796a.908.908 0 01.649.873v4.4l7.432-4.99a.99.99 0 01.519-.154h17.022a2.926 2.926 0 002.926-2.925V5.49z" fill="#6D97EB"/><path d="M34.16 5.491a2.924 2.924 0 00-2.926-2.996H5.482a2.926 2.926 0 00-2.925 2.926v16.515c0 1.073 1.616 2.36 3.055 2.796a.908.908 0 01.649.873v4.4l7.432-4.99a.99.99 0 01.519-.154h17.022a2.926 2.926 0 002.926-2.925V5.49z" fill="#6D97EB"/><path d="M29.206 10.28H7.476a1.734 1.734 0 010-3.456h21.73a1.734 1.734 0 010 3.457zm0-2.359H7.476a.625.625 0 000 1.25h21.73a.625.625 0 00.625-.624.625.625 0 00-.625-.614v-.012z" fill="#EEF7FB"/><path d="M29.206 7.921H7.476a.625.625 0 000 1.25h21.73a.625.625 0 00.625-.624.625.625 0 00-.625-.614v-.012zm-.001 7.444H7.476a1.734 1.734 0 010-3.469h21.73a1.734 1.734 0 110 3.469zm0-2.36H7.476a.625.625 0 100 1.25h21.73a.625.625 0 100-1.25z" fill="#EEF7FB"/><path d="M29.205 13.005H7.476a.625.625 0 100 1.25h21.73a.625.625 0 100-1.25zm.001 7.255H7.476a1.734 1.734 0 010-3.456h21.73a1.734 1.734 0 010 3.456zm0-2.36H7.476a.625.625 0 000 1.251h21.73a.625.625 0 00.625-.625.625.625 0 00-.625-.613V17.9z" fill="#EEF7FB"/><path d="M29.206 17.9H7.476a.625.625 0 000 1.251h21.73a.625.625 0 00.625-.625.625.625 0 00-.625-.613V17.9z" fill="#EEF7FB"/></g><defs><clipPath id="clip0_71_287"><path fill="#fff" transform="matrix(-1 0 0 1 36 .69)" d="M0 0h35.295v31.992H0z"/></clipPath></defs></svg>