<svg width="50" height="34" viewBox="0 0 50 34" fill="none" xmlns="http://www.w3.org/2000/svg"><path d="M25.47 11.724h6.39a.634.634 0 00.635-.635V.647A.648.648 0 0031.86 0H18.14a.645.645 0 00-.635.647v10.464a.636.636 0 00.634.636h6.39l.941-.023zm-6.685-1.26V1.329h12.463v9.182l-12.463-.045z" fill="#22591C"/><path d="M18.785 10.465V1.328h12.463v9.182l-12.463-.045zM14.99 32.949V22.484a.637.637 0 00-.646-.635H.634a.634.634 0 00-.634.635V32.95a.636.636 0 00.634.636h13.71a.633.633 0 00.646-.636zm-1.28-.636H1.245v-9.182H13.71v9.182z" fill="#22591C"/><path d="M13.71 32.313H1.245v-9.182H13.71v9.182zm4.43-10.464a.634.634 0 00-.635.635V32.95a.636.636 0 00.634.635H31.86a.634.634 0 00.635-.635V22.484a.636.636 0 00-.635-.635H18.14zm13.074 10.464H18.751v-9.182h12.463v9.182z" fill="#22591C"/><path d="M31.214 32.313H18.751v-9.182h12.463v9.182zm4.442-10.464a.635.635 0 00-.646.635V32.95a.637.637 0 00.646.636h13.71A.634.634 0 0050 32.95V22.484a.636.636 0 00-.635-.635h-13.71zm13.063 10.464H36.256v-9.182H48.72v9.182z" fill="#22591C"/><path d="M48.72 32.313H36.255v-9.182H48.72v9.182zM7.863 20.952h.93v-3.485H24.53v3.485h.94v-3.485h15.738v3.485h.929v-4.415H25.47v-4.824h-.94v4.824H7.863v4.415z" fill="#22591C"/></svg>