<svg width="80" height="70" viewBox="0 0 80 70" fill="none" xmlns="http://www.w3.org/2000/svg"><path fill-rule="evenodd" clip-rule="evenodd" d="M18.698 20.77c-8.339.253-1.517-6.905 11.454-7.158l1.095.168C29.394 3.084 35.205-4.749 56.429 3.337c30.742 9.433 33.605 59.545-9.854 65.862-20.382 1.347-29.057-5.559-27.962-11.454.169-.674.506-1.77 1.18-2.864v-4.8c0-.506.252-.927.505-1.18a1.663 1.663 0 011.179-.505h13.391v4.548c5.054 3.032 9.602 8.001 16.255 8.17 13.055-1.095 22.74-21.225 17.603-36.806-3.2-9.433-17.434-14.402-27.71-13.98v7.074h-4.463l.168.337-1.853 2.78h.084v3.957H19.961c-.337 0-.674-.169-.927-.337-.168-.253-.336-.59-.336-.927V20.77zm1.684 32.68c2.863-3.37 10.19-2.864 13.897-.843v-3.622H21.477c-.253 0-.506.085-.758.337a1.068 1.068 0 00-.337.758v3.37zm13.98-32.342H19.288v2.105c0 .169.084.337.169.506.168.084.336.168.505.168h14.402v-2.78zm4.549-10.612c-1.095.336-2.021 1.095-2.611 2.358v3.958h2.61v-6.316z" fill="#fff"/><path d="M55.755 33.91c0 2.779-1.095 5.137-3.284 7.243-2.106 1.937-4.548 2.947-7.16 2.947-1.936 0-3.452-.505-4.631-1.6-1.095-1.01-1.685-2.442-1.685-4.295 0-.927.253-1.937.674-3.032.421-1.01 1.263-2.274 1.937-3.116h4.97c-.843.758-1.854 2.021-2.36 3.2-.589 1.18-.841 2.358-.841 3.453 0 .927.168 1.685.505 2.274.505.758 1.095 1.18 1.937 1.18 1.432 0 2.695-.927 3.874-2.78 1.011-1.6 1.516-3.2 1.516-4.717 0-1.179-.337-2.105-1.01-2.779-.758-.674-1.685-1.01-2.864-1.01h-5.39l2.19-2.78h4.127c2.105 0 3.79.421 5.137 1.264 1.516 1.01 2.358 2.526 2.358 4.548zm-16.507-3.79c0 .842-.337 1.431-.927 2.02-.59.506-1.263.675-2.105.675a3.297 3.297 0 01-1.516-.337c-.506-.337-.927-.674-1.18-1.095l-3.874 3.958 1.853 6.822h5.812c-.085.59-.422 1.011-1.011 1.348-.59.253-1.18.421-1.769.421h-4.464a2.775 2.775 0 01-1.852-.674c-.506-.42-.927-1.01-1.095-1.684l-.758-2.611-3.622 3.706c-.926 1.01-2.021 1.516-3.116 1.516-.758 0-1.516-.169-2.106-.674-.59-.59-.926-1.18-.926-2.021 0-.674.337-1.348.926-1.853.59-.506 1.264-.843 2.106-.843 1.263 0 2.105.59 2.695 1.6l3.453-3.62-1.432-5.896h-5.558l1.684-2.78h4.716c1.938 0 3.117.758 3.454 2.443l.59 2.61 3.284-3.537c.842-.758 1.347-1.347 1.6-1.516.674-.42 1.348-.674 2.106-.674.842 0 1.516.253 2.105.758.59.506.927 1.18.927 1.938zm-21.814 1.684c0 2.274-1.6 4.211-4.716 5.727-2.106 1.095-4.633 1.937-7.496 2.443l-1.18 3.958H0l3.537-11.875H7.58l-1.684 5.727a16.04 16.04 0 004.127-1.516c1.6-1.01 2.442-2.106 2.526-3.453 0-.843-.252-1.432-.842-1.685-.337-.168-1.01-.252-1.937-.252H3.79l1.769-2.78h6.064c1.684 0 2.947.169 3.874.59 1.263.59 1.937 1.684 1.937 3.116z" fill="#fff"/></svg>