<svg width="47" height="42" viewBox="0 0 47 42" fill="none" xmlns="http://www.w3.org/2000/svg"><path fill-rule="evenodd" clip-rule="evenodd" d="M11.069 12.297c-4.936.15-.898-4.089 6.781-4.239l.648.1c-1.097-6.332 2.344-10.97 14.909-6.183 18.2 5.585 19.895 35.252-5.834 38.992-12.066.798-17.202-3.29-16.554-6.781.1-.399.3-1.047.698-1.695v-2.843c0-.299.15-.548.3-.697a.98.98 0 01.697-.3h7.929v2.693c2.99 1.795 5.683 4.737 9.622 4.836 7.729-.648 13.463-12.565 10.422-21.79-1.895-5.584-10.322-8.525-16.405-8.276v4.189H21.64l.1.199-1.098 1.645h.05v2.344h-8.875c-.2 0-.4-.1-.549-.2-.1-.15-.2-.349-.2-.548v-1.446zm.997 19.346c1.695-1.995 6.033-1.695 8.227-.499V29h-7.579c-.15 0-.299.05-.449.2-.1.1-.199.25-.199.448v1.995zm8.277-19.147h-8.925v1.247c0 .1.05.2.1.299.1.05.199.1.299.1h8.526v-1.646zm2.693-6.282c-.649.2-1.197.648-1.546 1.396v2.343h1.546v-3.74z" fill="#fff" fill-opacity=".2"/><path d="M33.008 20.075c0 1.646-.648 3.042-1.944 4.288-1.247 1.147-2.693 1.745-4.238 1.745-1.147 0-2.045-.299-2.743-.947-.648-.598-.997-1.446-.997-2.543 0-.548.15-1.147.399-1.795.25-.598.748-1.346 1.147-1.845h2.941c-.498.449-1.096 1.197-1.396 1.895a4.56 4.56 0 00-.498 2.044c0 .549.1.997.299 1.347.3.448.648.698 1.147.698.847 0 1.595-.549 2.293-1.646.599-.947.898-1.894.898-2.792 0-.698-.2-1.247-.598-1.646-.45-.398-.998-.598-1.696-.598h-3.19l1.296-1.645h2.443c1.246 0 2.243.25 3.041.748.898.598 1.396 1.495 1.396 2.692zm-9.773-2.245c0 .5-.2.849-.549 1.198-.349.299-.747.399-1.246.399-.3 0-.598-.05-.898-.2-.299-.2-.548-.399-.698-.648l-2.293 2.343 1.097 4.04h3.44c-.05.348-.25.598-.598.797-.35.15-.698.25-1.047.25H17.8a1.64 1.64 0 01-1.097-.4 1.942 1.942 0 01-.648-.997l-.449-1.546-2.144 2.194c-.548.599-1.197.898-1.845.898-.449 0-.897-.1-1.246-.4-.35-.348-.549-.697-.549-1.196 0-.399.2-.798.549-1.097.349-.299.748-.498 1.246-.498.748 0 1.247.349 1.596.947l2.044-2.144-.848-3.49h-3.29l.997-1.646h2.792c1.147 0 1.845.449 2.045 1.446l.349 1.546 1.944-2.094c.499-.449.798-.798.948-.898.398-.25.797-.399 1.246-.399.499 0 .897.15 1.246.45.35.298.549.697.549 1.146zm-12.914.999c0 1.346-.947 2.493-2.792 3.39-1.246.648-2.742 1.147-4.438 1.446l-.698 2.344H0l2.094-7.03h2.394l-.998 3.39a9.496 9.496 0 002.444-.898c.947-.598 1.446-1.246 1.495-2.044 0-.499-.15-.848-.498-.997-.2-.1-.599-.15-1.147-.15h-3.54l1.047-1.645h3.59c.997 0 1.745.1 2.294.349.747.349 1.146.997 1.146 1.845z" fill="#fff" fill-opacity=".2"/></svg>