<svg width="162" height="80" viewBox="0 0 162 80" fill="none" xmlns="http://www.w3.org/2000/svg"><path d="M42.153 38.661L38.948 26.7h-2.864v11.96h-1.837v-26.7h4.358c2.677 0 4.793 1.163 4.793 7.384 0 4.125-.933 6.112-2.739 6.938l3.456 12.38h-1.962zm-3.48-24.714h-2.59v10.762h2.59c2.24 0 2.9-1.912 2.9-5.363 0-3.45-.66-5.399-2.9-5.399zm6.602 24.714V11.96h7.546v1.987h-5.75v10.349h4.958v1.988H47.07V36.67h5.751v1.991h-7.546zm16.875 0l-5.858-20.814v20.814h-1.73V11.96h1.73l5.823 20.811V11.96h1.735v26.701h-1.7zm8.429-24.714v24.714h-1.845V13.947h-3.722V11.96h9.287v1.987h-3.72zm8.479 24.714c-1.404 0-2.505-.587-3.232-1.54-1.314-1.687-1.527-3.52-1.527-11.81 0-8.29.213-10.123 1.527-11.81.733-.954 1.833-1.541 3.232-1.541 1.398 0 2.444.55 3.177 1.431.915 1.174 1.314 2.86 1.343 4.842h-1.802c0-2.092-.517-4.328-2.715-4.328a2.28 2.28 0 00-1.923.953c-.886 1.247-1.035 2.787-1.035 10.453 0 7.665.153 9.206 1.035 10.453a2.275 2.275 0 001.923.954c1.59 0 2.715-1.43 2.715-3.925v-6.416h-2.715v-1.836h4.525v8.253c-.008 3.924-2.115 5.867-4.528 5.867zm6.27 0V11.96h7.546v1.987h-5.752v10.349h4.957v1.988h-4.96V36.67h5.751v1.991h-7.542zm16.762 0L95.878 17.85v20.81h-1.843v-26.7h1.843l6.183 20.811V11.96h1.842v26.701h-1.813zm10.98 0V26.06h-5.563v12.6h-1.863v-26.7h1.863v12.112h5.56V11.96h1.864v26.701h-1.861zm3.603 0V11.96h1.741v26.701h-1.741zm11.388 0l-3.203-11.964h-2.865V38.66h-1.838v-26.7h4.36c2.678 0 4.795 1.163 4.795 7.384 0 4.125-.933 6.112-2.74 6.938l3.453 12.38h-1.962zm-3.488-24.711h-2.584v10.76h2.584c2.241 0 2.9-1.912 2.9-5.362s-.658-5.402-2.9-5.402v.003zm13.998 23.191a4.28 4.28 0 01-1.48 1.121 4.379 4.379 0 01-3.654 0 4.28 4.28 0 01-1.48-1.121c-.819-.964-1.353-2.41-1.353-4.264V11.96h1.858v21.102c0 2.262 1.26 3.634 2.799 3.634 1.54 0 2.772-1.372 2.772-3.634V11.96h1.858v20.917c.003 1.854-.501 3.3-1.32 4.264zm10.968 1.56l-3.207-11.961h-2.863V38.7h-1.837V12h4.357c2.678 0 4.795 1.163 4.795 7.384 0 4.125-.934 6.112-2.739 6.938l3.455 12.38h-1.961zm-3.486-24.711h-2.584v10.76h2.584c2.24 0 2.898-1.912 2.898-5.362s-.657-5.402-2.898-5.402v.003zm10.792 24.671c-1.404 0-2.504-.587-3.232-1.54-1.318-1.687-1.533-3.522-1.533-11.81 0-8.29.213-10.123 1.527-11.81.733-.954 1.833-1.541 3.232-1.541 1.399 0 2.444.55 3.177 1.431.916 1.174 1.314 2.86 1.344 4.842h-1.802c0-2.092-.518-4.328-2.715-4.328a2.281 2.281 0 00-1.924.953c-.886 1.247-1.034 2.787-1.034 10.453 0 7.665.152 9.206 1.034 10.453a2.278 2.278 0 001.924.954c1.589 0 2.715-1.43 2.715-3.925v-6.416h-2.715v-1.836h4.524v8.253c-.001 3.924-2.108 5.867-4.522 5.867z" fill="#353535"/><path d="M102.572 68.264l-.352-4.458 4.406-.263V44.817l-4.465-.257.411-4.158h17.741c10.456 0 14.157 3.301 14.157 7.11 0 2.53-2.056 4.416-4.464 5.702 4.056 1.158 6.402 3.387 6.402 6.302 0 4.843-4.579 8.743-15.743 8.743l-18.093.005zm18.972-16.287c1.997 0 4.465-1.072 4.465-3.86 0-2.485-2.232-3.171-6.168-3.171h-5.17v7.03h6.873zm-6.873 4.158v7.544h5.522c5.111 0 7.458-1.543 7.458-4.158 0-2.53-1.997-3.386-5.64-3.386h-7.34z" fill="url(#paint0_linear_77_2860)"/><path d="M33.728 63.806l4.616-.263V44.817l-4.678-.257.431-4.158h16.997v4.458l-4.31.257V63.38H57.84l.74-3.387 2.941.141 4.65 8.131H34.098l-.37-4.458z" fill="url(#paint1_linear_77_2860)"/><path d="M149.544 67.684l-3.207-11.963h-2.86v11.963h-1.845V40.983h4.357c2.678 0 4.795 1.163 4.795 7.384 0 4.125-.934 6.112-2.739 6.938L151.5 67.68l-1.956.004zm-3.488-24.714h-2.579v10.763h2.583c2.24 0 2.899-1.912 2.899-5.362s-.66-5.4-2.903-5.4zm13.992 23.193a4.281 4.281 0 01-1.48 1.122 4.374 4.374 0 01-3.654 0 4.29 4.29 0 01-1.48-1.122c-.819-.963-1.354-2.41-1.354-4.264V40.983h1.858v21.101c0 2.263 1.26 3.635 2.8 3.635 1.539 0 2.771-1.372 2.771-3.635V40.983h1.858v20.916c.004 1.854-.499 3.3-1.319 4.264z" fill="#353535"/><path d="M66.892 72.53c-15.64 8.035-34.69 5.756-47.215-4.684C2.267 57.352-3.636 36.49 6.533 19.505c-11.68 17.559-7.118 39.51 9.057 51.619 15.739 11.846 38.374 11.534 54.064-.149-.9.549-1.821 1.067-2.763 1.554z" fill="url(#paint2_linear_77_2860)"/><path d="M44.413.431a43.925 43.925 0 00-8.793.35C23.498 2.906 13.015 9.815 6.679 19.362-3.58 36.71 2.809 57.432 19.71 67.684-10.945 40.936 16.476-5.313 57.466 3.273A43.022 43.022 0 0044.413.431z" fill="url(#paint3_linear_77_2860)"/><path d="M67.777 70.96C45.803 81.591 19.12 69.635 14.045 47.297 8.192 20.084 36.359-2.237 63.727 6.208c-6.11-4-12.889-4.505-20.358-3.907C22.992 4.274 6.683 20.114 6.384 39.61 6.23 69.466 41.676 87.214 69.331 70.568c1.797-1.1.728-.714-1.554.39z" fill="url(#paint4_linear_77_2860)"/><path d="M74.049 56.26c.084 3.501 2.202 7.143 8.112 7.143s8.17-3.019 8.17-7.142l-.053-15.859h8.4l-.06 17.176c0 6.037-4.463 11.267-16.746 11.267-12.111 0-16.145-5.819-16.746-11.267-1.072-9.627 5.635-13.919 10.32-15.707 2.918-1.114 8.269-1.469 8.269-1.469v4.124s-5.644.48-8.532 5.833c-.942 1.746-1.2 3.08-1.134 5.901z" fill="url(#paint5_linear_77_2860)"/><defs><linearGradient id="paint0_linear_77_2860" x1="102.161" y1="54.333" x2="136.407" y2="54.333" gradientUnits="userSpaceOnUse"><stop stop-color="#009EDD"/><stop offset="1" stop-color="#215FAA"/></linearGradient><linearGradient id="paint1_linear_77_2860" x1="25771.4" y1="25243.3" x2="33829.9" y2="25243.3" gradientUnits="userSpaceOnUse"><stop stop-color="#009EDD"/><stop offset="1" stop-color="#215FAA"/></linearGradient><linearGradient id="paint2_linear_77_2860" x1="-.476" y1="48.405" x2="70.647" y2="52.206" gradientUnits="userSpaceOnUse"><stop stop-color="#CBE2F7"/><stop offset="1" stop-color="#0085CC"/></linearGradient><linearGradient id="paint3_linear_77_2860" x1="28.899" y1="-1.286" x2="30.581" y2="50.808" gradientUnits="userSpaceOnUse"><stop stop-color="#CBE2F7"/><stop offset="1" stop-color="#009BD9"/></linearGradient><linearGradient id="paint4_linear_77_2860" x1="-13355.6" y1="25450.6" x2="9527.71" y2="67496.1" gradientUnits="userSpaceOnUse"><stop stop-color="#009EDD"/><stop offset="1" stop-color="#215FAA"/></linearGradient><linearGradient id="paint5_linear_77_2860" x1="34790.5" y1="25856.3" x2="43425.7" y2="25856.3" gradientUnits="userSpaceOnUse"><stop stop-color="#009EDD"/><stop offset="1" stop-color="#215FAA"/></linearGradient></defs></svg>