<svg width="32" height="31" viewBox="0 0 32 31" fill="none" xmlns="http://www.w3.org/2000/svg"><rect x=".855" width="30.714" height="30.714" rx="15.357" fill="#fff"/><circle cx="16.213" cy="15.357" r="15.357" fill="#FE9C31"/><path d="M21.003 17.502c.402-.403.46-.979.115-1.554-.288-.46-.806-.69-1.382-.576-.23.058-.46.173-.69.346-1.785 1.209-4.202 1.15-5.987-.058l-.345-.172c-.633-.288-1.266-.173-1.612.402-.403.576-.345 1.21.173 1.727.115.115.23.173.288.288l.057.057c.806.634 1.785 1.037 3.051 1.21l-.748.748-1.957 1.957c-.173.172-.403.46-.403.863 0 .518.288 1.036.806 1.266.172.115.345.115.518.115.287 0 .633-.115.863-.402l2.245-2.245.057-.058s.058 0 .058.058c.46.518.979.978 1.439 1.496l.69.69c.288.289.519.404.864.404.518.057 1.094-.288 1.324-.806.23-.46.115-1.036-.288-1.381-.575-.576-1.151-1.21-1.784-1.785l-.979-.978c.518-.058 1.094-.173 1.612-.403.863-.288 1.497-.69 2.015-1.209z" fill="#fff"/><path d="M16.052 15.89c2.476 0 4.49-1.957 4.49-4.432 0-1.208-.46-2.36-1.324-3.223-.863-.863-1.957-1.324-3.108-1.324-2.475 0-4.432 2.015-4.49 4.432 0 1.209.46 2.303 1.324 3.166.806.92 1.9 1.381 3.108 1.381zm-1.266-5.756a1.786 1.786 0 011.266-.518c1.037 0 1.785.806 1.785 1.785 0 1.036-.806 1.784-1.785 1.784-1.036 0-1.784-.806-1.784-1.784 0-.46.173-.921.518-1.267z" fill="#fff"/><path d="M21.003 17.502c.402-.403.46-.979.115-1.554-.288-.46-.806-.69-1.382-.576-.23.058-.46.173-.69.346-1.785 1.209-4.202 1.15-5.987-.058l-.345-.172c-.633-.288-1.266-.173-1.612.402-.403.576-.345 1.21.173 1.727.115.115.23.173.288.288l.057.057c.806.634 1.785 1.037 3.051 1.21l-.748.748-1.957 1.957c-.173.172-.403.46-.403.863 0 .518.288 1.036.806 1.266.172.115.345.115.518.115.287 0 .633-.115.863-.402l2.245-2.245.057-.058s.058 0 .058.058c.46.518.979.978 1.439 1.496l.69.69c.288.289.519.404.864.404.518.057 1.094-.288 1.324-.806.23-.46.115-1.036-.288-1.381-.575-.576-1.151-1.21-1.784-1.785l-.979-.978c.518-.058 1.094-.173 1.612-.403.863-.288 1.497-.69 2.015-1.209z" fill="#fff"/></svg>