<svg width="18" height="19" viewBox="0 0 18 19" fill="none" xmlns="http://www.w3.org/2000/svg"><path d="M17.406 15.01h-7.114v-1.563h5.548v-.725h-5.548v-1.226h5.548v-.725h-5.548V8.756a2.384 2.384 0 001.855.901c1.346 0 2.437-1.148 2.437-2.564h-2.437V4.53c-.743 0-1.408.35-1.855.902V2.578h7.115V15.01zm.001-13.054h-7.115V0L.001 1.88v14.245l10.291 1.878v-2.37h7.115c.326 0 .591-.279.591-.622V2.578c0-.343-.265-.622-.59-.622z" fill="#fff"/><path d="M12.524 4.166V6.73h2.438c0-1.416-1.091-2.564-2.438-2.564z" fill="#D04727"/><path fill-rule="evenodd" clip-rule="evenodd" d="M4.356 8.89c.41.034.811.115 1.06-.333.189-.338.173-.955-.045-1.215-.283-.336-.648-.288-1.015-.227v1.776zm-.03 3.18h-1.03V6.015c.795 0 1.586-.023 2.375.016.207.01.447.173.6.339.586.636.586 1.428.41 2.218-.155.703-.587 1.198-1.267 1.372-.338.087-.7.071-1.087.105v2.003z" fill="#D04727"/></svg>