<svg width="24" height="24" viewBox="0 0 24 24" fill="none" xmlns="http://www.w3.org/2000/svg"><path d="M10.264 20.526c2.277 0 4.488-.763 6.282-2.166l5.64 5.64L24 22.186l-5.64-5.64a10.202 10.202 0 002.167-6.283C20.527 4.604 15.923 0 10.263 0 4.605 0 0 4.604 0 10.263s4.604 10.263 10.264 10.263zm0-17.96c4.245 0 7.697 3.452 7.697 7.697s-3.452 7.697-7.697 7.697c-4.246 0-7.698-3.452-7.698-7.697s3.452-7.697 7.698-7.697z" fill="url(#paint0_linear_33_410)"/><defs><linearGradient id="paint0_linear_33_410" x1="0" y1="12" x2="23.999" y2="12" gradientUnits="userSpaceOnUse"><stop stop-color="#009EDD"/><stop offset="1" stop-color="#215FAA"/></linearGradient></defs></svg>