<svg width="12" height="19" viewBox="0 0 12 19" fill="none" xmlns="http://www.w3.org/2000/svg"><path d="M11.005 11.501c.402-.403.46-.978.115-1.554-.288-.46-.806-.69-1.382-.576-.23.058-.46.173-.69.346-1.785 1.208-4.202 1.15-5.987-.058l-.345-.173c-.633-.287-1.266-.172-1.612.403-.403.576-.345 1.21.173 1.727.115.115.23.173.288.288l.057.058c.806.633 1.785 1.036 3.05 1.208l-.747.749-1.957 1.957c-.173.172-.403.46-.403.863 0 .518.288 1.036.806 1.266.172.115.345.115.518.115.287 0 .633-.115.863-.402l2.245-2.245.057-.058s.058 0 .058.058c.46.518.978.978 1.439 1.496l.69.69c.288.289.519.404.864.404.518.057 1.094-.288 1.324-.806.23-.46.115-1.036-.288-1.381-.576-.576-1.151-1.21-1.784-1.785l-.979-.978c.518-.058 1.094-.173 1.612-.403.863-.288 1.496-.69 2.014-1.209z" fill="#DBE3EF"/><path d="M6.054 9.89c2.475 0 4.49-1.958 4.49-4.433 0-1.208-.46-2.36-1.324-3.223C8.357 1.371 7.263.91 6.112.91c-2.475 0-4.432 2.015-4.49 4.432 0 1.209.46 2.303 1.324 3.166.806.92 1.9 1.381 3.108 1.381zM4.788 4.132a1.786 1.786 0 011.266-.518c1.036 0 1.785.806 1.785 1.785 0 1.036-.806 1.784-1.785 1.784-1.036 0-1.784-.806-1.784-1.784 0-.46.173-.921.518-1.267z" fill="#DBE3EF"/><path d="M11.005 11.501c.402-.403.46-.978.115-1.554-.288-.46-.806-.69-1.382-.576-.23.058-.46.173-.69.346-1.785 1.208-4.202 1.15-5.987-.058l-.345-.173c-.633-.287-1.266-.172-1.612.403-.403.576-.345 1.21.173 1.727.115.115.23.173.288.288l.057.058c.806.633 1.785 1.036 3.05 1.208l-.747.749-1.957 1.957c-.173.172-.403.46-.403.863 0 .518.288 1.036.806 1.266.172.115.345.115.518.115.287 0 .633-.115.863-.402l2.245-2.245.057-.058s.058 0 .058.058c.46.518.978.978 1.439 1.496l.69.69c.288.289.519.404.864.404.518.057 1.094-.288 1.324-.806.23-.46.115-1.036-.288-1.381-.576-.576-1.151-1.21-1.784-1.785l-.979-.978c.518-.058 1.094-.173 1.612-.403.863-.288 1.496-.69 2.014-1.209z" fill="#DBE3EF"/></svg>