<svg width="16" height="13" viewBox="0 0 16 13" fill="none" xmlns="http://www.w3.org/2000/svg"><path d="M15.925 2.44a6.64 6.64 0 01-1.766.461c.614-.384 1.152-.998 1.382-1.69-.614.385-1.229.615-1.996.769a3.021 3.021 0 00-2.227-1 3.08 3.08 0 00-3.072 3.072c0 .23 0 .46.077.69A9.051 9.051 0 011.95 1.52c-.23.46-.384.998-.384 1.536 0 1.075.538 1.996 1.382 2.534-.537 0-.998-.154-1.382-.384 0 1.459 1.075 2.764 2.457 2.994-.23.077-.537.077-.844.077-.23 0-.384 0-.615-.077a3.065 3.065 0 002.918 2.15c-1.075.845-2.38 1.306-3.84 1.306-.23 0-.46 0-.767-.077 1.382.845 2.995 1.382 4.76 1.382 5.683 0 8.754-4.684 8.754-8.754v-.383c.615-.23 1.152-.768 1.536-1.383z" fill="#DBE3EF"/></svg>