<svg width="31" height="31" viewBox="0 0 31 31" fill="none" xmlns="http://www.w3.org/2000/svg"><circle cx="15.499" cy="15.357" r="15.357" fill="#2299DB"/><path d="M7.322 15.644l3.53 1.316 1.377 4.429c.06.299.419.359.658.18l1.975-1.616c.18-.18.479-.18.718 0l3.53 2.573c.24.18.6.06.66-.24L22.401 9.72c.06-.3-.24-.599-.538-.48L7.322 14.867c-.359.12-.359.658 0 .778zm4.728.658l6.941-4.248c.12-.06.24.12.12.179l-5.685 5.326c-.18.18-.36.419-.36.718l-.179 1.436c0 .18-.299.24-.359 0l-.718-2.633c-.18-.299-.06-.658.24-.778z" fill="#fff"/></svg>