<svg width="122" height="86" viewBox="0 0 122 86" fill="none" xmlns="http://www.w3.org/2000/svg"><g clip-path="url(#clip0_342_691)"><path d="M120.481 19.21s-1.185-8.22-4.813-11.84c-4.599-4.753-9.768-4.777-12.127-5.057C86.588 1.11 61.171 1.11 61.171 1.11h-.047s-25.416 0-42.369 1.203c-2.359.28-7.528.304-12.127 5.056C3 10.99 1.815 19.21 1.815 19.21S.605 28.856.605 38.513v9.05c0 9.657 1.21 19.302 1.21 19.302S3 75.085 6.628 78.704c4.611 4.754 10.657 4.602 13.348 5.104 9.686.91 41.172 1.203 41.172 1.203s25.44-.035 42.393-1.25c2.371-.28 7.528-.303 12.127-5.056 3.628-3.62 4.813-11.84 4.813-11.84s1.21-9.658 1.21-19.303v-9.05c0-9.657-1.21-19.302-1.21-19.302zm-71.84 39.317V25.013l32.72 16.815-32.72 16.699z" fill="#000" fill-opacity=".4"/></g><defs><clipPath id="clip0_342_691"><path fill="#fff" transform="translate(.389 .96)" d="M0 0h121.393v84.192H0z"/></clipPath></defs></svg>